<?xml version="1.0" encoding="utf-8" standalone="no"?>
<!DOCTYPE svg PUBLIC "-//W3C//DTD SVG 1.1//EN"
  "http://www.w3.org/Graphics/SVG/1.1/DTD/svg11.dtd">
<svg xmlns:xlink="http://www.w3.org/1999/xlink" width="720pt" height="360pt" viewBox="0 0 720 360" xmlns="http://www.w3.org/2000/svg" version="1.1">
 <metadata>
  <rdf:RDF xmlns:dc="http://purl.org/dc/elements/1.1/" xmlns:cc="http://creativecommons.org/ns#" xmlns:rdf="http://www.w3.org/1999/02/22-rdf-syntax-ns#">
   <cc:Work>
    <dc:type rdf:resource="http://purl.org/dc/dcmitype/StillImage"/>
    <dc:date>2024-03-20T20:32:24.518486</dc:date>
    <dc:format>image/svg+xml</dc:format>
    <dc:creator>
     <cc:Agent>
      <dc:title>Matplotlib v3.8.2, https://matplotlib.org/</dc:title>
     </cc:Agent>
    </dc:creator>
   </cc:Work>
  </rdf:RDF>
 </metadata>
 <defs>
  <style type="text/css">*{stroke-linejoin: round; stroke-linecap: butt}</style>
 </defs>
 <g id="figure_1">
  <g id="patch_1">
   <path d="M 0 360 
L 720 360 
L 720 0 
L 0 0 
z
" style="fill: #ffffff"/>
  </g>
  <g id="axes_1">
   <g id="patch_2">
    <path d="M 90 320.4 
L 648 320.4 
L 648 43.2 
L 90 43.2 
z
" style="fill: #eaeaf2"/>
   </g>
   <g id="matplotlib.axis_1">
    <g id="xtick_1">
     <g id="line2d_1">
      <path d="M 115.363636 320.4 
L 115.363636 43.2 
" clip-path="url(#p73224241aa)" style="fill: none; stroke-dasharray: 1.85,0.8; stroke-dashoffset: 0; stroke: #800080; stroke-width: 0.5"/>
     </g>
     <g id="line2d_2"/>
     <g id="text_1">
      <!-- −60 -->
      <g style="fill: #262626" transform="translate(106.882386 331.057813) scale(0.1 -0.1)">
       <defs>
        <path id="ArialMT-2212" d="M 3381 1997 
L 356 1997 
L 356 2522 
L 3381 2522 
L 3381 1997 
z
" transform="scale(0.015625)"/>
        <path id="ArialMT-36" d="M 3184 3459 
L 2625 3416 
Q 2550 3747 2413 3897 
Q 2184 4138 1850 4138 
Q 1581 4138 1378 3988 
Q 1113 3794 959 3422 
Q 806 3050 800 2363 
Q 1003 2672 1297 2822 
Q 1591 2972 1913 2972 
Q 2475 2972 2870 2558 
Q 3266 2144 3266 1488 
Q 3266 1056 3080 686 
Q 2894 316 2569 119 
Q 2244 -78 1831 -78 
Q 1128 -78 684 439 
Q 241 956 241 2144 
Q 241 3472 731 4075 
Q 1159 4600 1884 4600 
Q 2425 4600 2770 4297 
Q 3116 3994 3184 3459 
z
M 888 1484 
Q 888 1194 1011 928 
Q 1134 663 1356 523 
Q 1578 384 1822 384 
Q 2178 384 2434 671 
Q 2691 959 2691 1453 
Q 2691 1928 2437 2201 
Q 2184 2475 1800 2475 
Q 1419 2475 1153 2201 
Q 888 1928 888 1484 
z
" transform="scale(0.015625)"/>
        <path id="ArialMT-30" d="M 266 2259 
Q 266 3072 433 3567 
Q 600 4063 929 4331 
Q 1259 4600 1759 4600 
Q 2128 4600 2406 4451 
Q 2684 4303 2865 4023 
Q 3047 3744 3150 3342 
Q 3253 2941 3253 2259 
Q 3253 1453 3087 958 
Q 2922 463 2592 192 
Q 2263 -78 1759 -78 
Q 1097 -78 719 397 
Q 266 969 266 2259 
z
M 844 2259 
Q 844 1131 1108 757 
Q 1372 384 1759 384 
Q 2147 384 2411 759 
Q 2675 1134 2675 2259 
Q 2675 3391 2411 3762 
Q 2147 4134 1753 4134 
Q 1366 4134 1134 3806 
Q 844 3388 844 2259 
z
" transform="scale(0.015625)"/>
       </defs>
       <use xlink:href="#ArialMT-2212"/>
       <use xlink:href="#ArialMT-36" x="58.398438"/>
       <use xlink:href="#ArialMT-30" x="114.013672"/>
      </g>
     </g>
    </g>
    <g id="xtick_2">
     <g id="line2d_3">
      <path d="M 186.810499 320.4 
L 186.810499 43.2 
" clip-path="url(#p73224241aa)" style="fill: none; stroke-dasharray: 1.85,0.8; stroke-dashoffset: 0; stroke: #800080; stroke-width: 0.5"/>
     </g>
     <g id="line2d_4"/>
     <g id="text_2">
      <!-- −50 -->
      <g style="fill: #262626" transform="translate(178.329249 331.057813) scale(0.1 -0.1)">
       <defs>
        <path id="ArialMT-35" d="M 266 1200 
L 856 1250 
Q 922 819 1161 601 
Q 1400 384 1738 384 
Q 2144 384 2425 690 
Q 2706 997 2706 1503 
Q 2706 1984 2436 2262 
Q 2166 2541 1728 2541 
Q 1456 2541 1237 2417 
Q 1019 2294 894 2097 
L 366 2166 
L 809 4519 
L 3088 4519 
L 3088 3981 
L 1259 3981 
L 1013 2750 
Q 1425 3038 1878 3038 
Q 2478 3038 2890 2622 
Q 3303 2206 3303 1553 
Q 3303 931 2941 478 
Q 2500 -78 1738 -78 
Q 1113 -78 717 272 
Q 322 622 266 1200 
z
" transform="scale(0.015625)"/>
       </defs>
       <use xlink:href="#ArialMT-2212"/>
       <use xlink:href="#ArialMT-35" x="58.398438"/>
       <use xlink:href="#ArialMT-30" x="114.013672"/>
      </g>
     </g>
    </g>
    <g id="xtick_3">
     <g id="line2d_5">
      <path d="M 258.257362 320.4 
L 258.257362 43.2 
" clip-path="url(#p73224241aa)" style="fill: none; stroke-dasharray: 1.85,0.8; stroke-dashoffset: 0; stroke: #800080; stroke-width: 0.5"/>
     </g>
     <g id="line2d_6"/>
     <g id="text_3">
      <!-- −40 -->
      <g style="fill: #262626" transform="translate(249.776112 331.057813) scale(0.1 -0.1)">
       <defs>
        <path id="ArialMT-34" d="M 2069 0 
L 2069 1097 
L 81 1097 
L 81 1613 
L 2172 4581 
L 2631 4581 
L 2631 1613 
L 3250 1613 
L 3250 1097 
L 2631 1097 
L 2631 0 
L 2069 0 
z
M 2069 1613 
L 2069 3678 
L 634 1613 
L 2069 1613 
z
" transform="scale(0.015625)"/>
       </defs>
       <use xlink:href="#ArialMT-2212"/>
       <use xlink:href="#ArialMT-34" x="58.398438"/>
       <use xlink:href="#ArialMT-30" x="114.013672"/>
      </g>
     </g>
    </g>
    <g id="xtick_4">
     <g id="line2d_7">
      <path d="M 329.704225 320.4 
L 329.704225 43.2 
" clip-path="url(#p73224241aa)" style="fill: none; stroke-dasharray: 1.85,0.8; stroke-dashoffset: 0; stroke: #800080; stroke-width: 0.5"/>
     </g>
     <g id="line2d_8"/>
     <g id="text_4">
      <!-- −30 -->
      <g style="fill: #262626" transform="translate(321.222975 331.057813) scale(0.1 -0.1)">
       <defs>
        <path id="ArialMT-33" d="M 269 1209 
L 831 1284 
Q 928 806 1161 595 
Q 1394 384 1728 384 
Q 2125 384 2398 659 
Q 2672 934 2672 1341 
Q 2672 1728 2419 1979 
Q 2166 2231 1775 2231 
Q 1616 2231 1378 2169 
L 1441 2663 
Q 1497 2656 1531 2656 
Q 1891 2656 2178 2843 
Q 2466 3031 2466 3422 
Q 2466 3731 2256 3934 
Q 2047 4138 1716 4138 
Q 1388 4138 1169 3931 
Q 950 3725 888 3313 
L 325 3413 
Q 428 3978 793 4289 
Q 1159 4600 1703 4600 
Q 2078 4600 2393 4439 
Q 2709 4278 2876 4000 
Q 3044 3722 3044 3409 
Q 3044 3113 2884 2869 
Q 2725 2625 2413 2481 
Q 2819 2388 3044 2092 
Q 3269 1797 3269 1353 
Q 3269 753 2831 336 
Q 2394 -81 1725 -81 
Q 1122 -81 723 278 
Q 325 638 269 1209 
z
" transform="scale(0.015625)"/>
       </defs>
       <use xlink:href="#ArialMT-2212"/>
       <use xlink:href="#ArialMT-33" x="58.398438"/>
       <use xlink:href="#ArialMT-30" x="114.013672"/>
      </g>
     </g>
    </g>
    <g id="xtick_5">
     <g id="line2d_9">
      <path d="M 401.151088 320.4 
L 401.151088 43.2 
" clip-path="url(#p73224241aa)" style="fill: none; stroke-dasharray: 1.85,0.8; stroke-dashoffset: 0; stroke: #800080; stroke-width: 0.5"/>
     </g>
     <g id="line2d_10"/>
     <g id="text_5">
      <!-- −20 -->
      <g style="fill: #262626" transform="translate(392.669838 331.057813) scale(0.1 -0.1)">
       <defs>
        <path id="ArialMT-32" d="M 3222 541 
L 3222 0 
L 194 0 
Q 188 203 259 391 
Q 375 700 629 1000 
Q 884 1300 1366 1694 
Q 2113 2306 2375 2664 
Q 2638 3022 2638 3341 
Q 2638 3675 2398 3904 
Q 2159 4134 1775 4134 
Q 1369 4134 1125 3890 
Q 881 3647 878 3216 
L 300 3275 
Q 359 3922 746 4261 
Q 1134 4600 1788 4600 
Q 2447 4600 2831 4234 
Q 3216 3869 3216 3328 
Q 3216 3053 3103 2787 
Q 2991 2522 2730 2228 
Q 2469 1934 1863 1422 
Q 1356 997 1212 845 
Q 1069 694 975 541 
L 3222 541 
z
" transform="scale(0.015625)"/>
       </defs>
       <use xlink:href="#ArialMT-2212"/>
       <use xlink:href="#ArialMT-32" x="58.398438"/>
       <use xlink:href="#ArialMT-30" x="114.013672"/>
      </g>
     </g>
    </g>
    <g id="xtick_6">
     <g id="line2d_11">
      <path d="M 472.597951 320.4 
L 472.597951 43.2 
" clip-path="url(#p73224241aa)" style="fill: none; stroke-dasharray: 1.85,0.8; stroke-dashoffset: 0; stroke: #800080; stroke-width: 0.5"/>
     </g>
     <g id="line2d_12"/>
     <g id="text_6">
      <!-- −10 -->
      <g style="fill: #262626" transform="translate(464.116701 331.057813) scale(0.1 -0.1)">
       <defs>
        <path id="ArialMT-31" d="M 2384 0 
L 1822 0 
L 1822 3584 
Q 1619 3391 1289 3197 
Q 959 3003 697 2906 
L 697 3450 
Q 1169 3672 1522 3987 
Q 1875 4303 2022 4600 
L 2384 4600 
L 2384 0 
z
" transform="scale(0.015625)"/>
       </defs>
       <use xlink:href="#ArialMT-2212"/>
       <use xlink:href="#ArialMT-31" x="58.398438"/>
       <use xlink:href="#ArialMT-30" x="114.013672"/>
      </g>
     </g>
    </g>
    <g id="xtick_7">
     <g id="line2d_13">
      <path d="M 544.044814 320.4 
L 544.044814 43.2 
" clip-path="url(#p73224241aa)" style="fill: none; stroke-dasharray: 1.85,0.8; stroke-dashoffset: 0; stroke: #800080; stroke-width: 0.5"/>
     </g>
     <g id="line2d_14"/>
     <g id="text_7">
      <!-- 0 -->
      <g style="fill: #262626" transform="translate(541.264346 331.057813) scale(0.1 -0.1)">
       <use xlink:href="#ArialMT-30"/>
      </g>
     </g>
    </g>
    <g id="xtick_8">
     <g id="line2d_15">
      <path d="M 615.491677 320.4 
L 615.491677 43.2 
" clip-path="url(#p73224241aa)" style="fill: none; stroke-dasharray: 1.85,0.8; stroke-dashoffset: 0; stroke: #800080; stroke-width: 0.5"/>
     </g>
     <g id="line2d_16"/>
     <g id="text_8">
      <!-- 10 -->
      <g style="fill: #262626" transform="translate(609.93074 331.057813) scale(0.1 -0.1)">
       <use xlink:href="#ArialMT-31"/>
       <use xlink:href="#ArialMT-30" x="55.615234"/>
      </g>
     </g>
    </g>
    <g id="text_9">
     <!-- $x_1$ -->
     <g style="fill: #262626" transform="translate(362.58 345.634687) scale(0.12 -0.12)">
      <defs>
       <path id="DejaVuSans-Oblique-78" d="M 3841 3500 
L 2234 1784 
L 3219 0 
L 2559 0 
L 1819 1388 
L 531 0 
L -166 0 
L 1556 1844 
L 641 3500 
L 1300 3500 
L 1972 2234 
L 3144 3500 
L 3841 3500 
z
" transform="scale(0.015625)"/>
       <path id="DejaVuSans-31" d="M 794 531 
L 1825 531 
L 1825 4091 
L 703 3866 
L 703 4441 
L 1819 4666 
L 2450 4666 
L 2450 531 
L 3481 531 
L 3481 0 
L 794 0 
L 794 531 
z
" transform="scale(0.015625)"/>
      </defs>
      <use xlink:href="#DejaVuSans-Oblique-78" transform="translate(0 0.3125)"/>
      <use xlink:href="#DejaVuSans-31" transform="translate(59.179688 -16.09375) scale(0.7)"/>
     </g>
    </g>
   </g>
   <g id="matplotlib.axis_2">
    <g id="ytick_1">
     <g id="line2d_17">
      <path d="M 90 291.80128 
L 648 291.80128 
" clip-path="url(#p73224241aa)" style="fill: none; stroke-dasharray: 1.85,0.8; stroke-dashoffset: 0; stroke: #800080; stroke-width: 0.5"/>
     </g>
     <g id="line2d_18"/>
     <g id="text_10">
      <!-- −75 -->
      <g style="fill: #262626" transform="translate(69.5375 295.380187) scale(0.1 -0.1)">
       <defs>
        <path id="ArialMT-37" d="M 303 3981 
L 303 4522 
L 3269 4522 
L 3269 4084 
Q 2831 3619 2401 2847 
Q 1972 2075 1738 1259 
Q 1569 684 1522 0 
L 944 0 
Q 953 541 1156 1306 
Q 1359 2072 1739 2783 
Q 2119 3494 2547 3981 
L 303 3981 
z
" transform="scale(0.015625)"/>
       </defs>
       <use xlink:href="#ArialMT-2212"/>
       <use xlink:href="#ArialMT-37" x="58.398438"/>
       <use xlink:href="#ArialMT-35" x="114.013672"/>
      </g>
     </g>
    </g>
    <g id="ytick_2">
     <g id="line2d_19">
      <path d="M 90 253.485019 
L 648 253.485019 
" clip-path="url(#p73224241aa)" style="fill: none; stroke-dasharray: 1.85,0.8; stroke-dashoffset: 0; stroke: #800080; stroke-width: 0.5"/>
     </g>
     <g id="line2d_20"/>
     <g id="text_11">
      <!-- −50 -->
      <g style="fill: #262626" transform="translate(69.5375 257.063925) scale(0.1 -0.1)">
       <use xlink:href="#ArialMT-2212"/>
       <use xlink:href="#ArialMT-35" x="58.398438"/>
       <use xlink:href="#ArialMT-30" x="114.013672"/>
      </g>
     </g>
    </g>
    <g id="ytick_3">
     <g id="line2d_21">
      <path d="M 90 215.168758 
L 648 215.168758 
" clip-path="url(#p73224241aa)" style="fill: none; stroke-dasharray: 1.85,0.8; stroke-dashoffset: 0; stroke: #800080; stroke-width: 0.5"/>
     </g>
     <g id="line2d_22"/>
     <g id="text_12">
      <!-- −25 -->
      <g style="fill: #262626" transform="translate(69.5375 218.747664) scale(0.1 -0.1)">
       <use xlink:href="#ArialMT-2212"/>
       <use xlink:href="#ArialMT-32" x="58.398438"/>
       <use xlink:href="#ArialMT-35" x="114.013672"/>
      </g>
     </g>
    </g>
    <g id="ytick_4">
     <g id="line2d_23">
      <path d="M 90 176.852497 
L 648 176.852497 
" clip-path="url(#p73224241aa)" style="fill: none; stroke-dasharray: 1.85,0.8; stroke-dashoffset: 0; stroke: #800080; stroke-width: 0.5"/>
     </g>
     <g id="line2d_24"/>
     <g id="text_13">
      <!-- 0 -->
      <g style="fill: #262626" transform="translate(80.939063 180.431403) scale(0.1 -0.1)">
       <use xlink:href="#ArialMT-30"/>
      </g>
     </g>
    </g>
    <g id="ytick_5">
     <g id="line2d_25">
      <path d="M 90 138.536236 
L 648 138.536236 
" clip-path="url(#p73224241aa)" style="fill: none; stroke-dasharray: 1.85,0.8; stroke-dashoffset: 0; stroke: #800080; stroke-width: 0.5"/>
     </g>
     <g id="line2d_26"/>
     <g id="text_14">
      <!-- 25 -->
      <g style="fill: #262626" transform="translate(75.378125 142.115142) scale(0.1 -0.1)">
       <use xlink:href="#ArialMT-32"/>
       <use xlink:href="#ArialMT-35" x="55.615234"/>
      </g>
     </g>
    </g>
    <g id="ytick_6">
     <g id="line2d_27">
      <path d="M 90 100.219974 
L 648 100.219974 
" clip-path="url(#p73224241aa)" style="fill: none; stroke-dasharray: 1.85,0.8; stroke-dashoffset: 0; stroke: #800080; stroke-width: 0.5"/>
     </g>
     <g id="line2d_28"/>
     <g id="text_15">
      <!-- 50 -->
      <g style="fill: #262626" transform="translate(75.378125 103.798881) scale(0.1 -0.1)">
       <use xlink:href="#ArialMT-35"/>
       <use xlink:href="#ArialMT-30" x="55.615234"/>
      </g>
     </g>
    </g>
    <g id="ytick_7">
     <g id="line2d_29">
      <path d="M 90 61.903713 
L 648 61.903713 
" clip-path="url(#p73224241aa)" style="fill: none; stroke-dasharray: 1.85,0.8; stroke-dashoffset: 0; stroke: #800080; stroke-width: 0.5"/>
     </g>
     <g id="line2d_30"/>
     <g id="text_16">
      <!-- 75 -->
      <g style="fill: #262626" transform="translate(75.378125 65.482619) scale(0.1 -0.1)">
       <use xlink:href="#ArialMT-37"/>
       <use xlink:href="#ArialMT-35" x="55.615234"/>
      </g>
     </g>
    </g>
    <g id="text_17">
     <!-- $x_2$ -->
     <g style="fill: #262626" transform="translate(63.1525 188.22) rotate(-90) scale(0.12 -0.12)">
      <defs>
       <path id="DejaVuSans-32" d="M 1228 531 
L 3431 531 
L 3431 0 
L 469 0 
L 469 531 
Q 828 903 1448 1529 
Q 2069 2156 2228 2338 
Q 2531 2678 2651 2914 
Q 2772 3150 2772 3378 
Q 2772 3750 2511 3984 
Q 2250 4219 1831 4219 
Q 1534 4219 1204 4116 
Q 875 4013 500 3803 
L 500 4441 
Q 881 4594 1212 4672 
Q 1544 4750 1819 4750 
Q 2544 4750 2975 4387 
Q 3406 4025 3406 3419 
Q 3406 3131 3298 2873 
Q 3191 2616 2906 2266 
Q 2828 2175 2409 1742 
Q 1991 1309 1228 531 
z
" transform="scale(0.015625)"/>
      </defs>
      <use xlink:href="#DejaVuSans-Oblique-78" transform="translate(0 0.3125)"/>
      <use xlink:href="#DejaVuSans-32" transform="translate(59.179688 -16.09375) scale(0.7)"/>
     </g>
    </g>
   </g>
   <g id="PolyCollection_1">
    <defs>
     <path id="m111b106abd" d="M 115.363636 -52.2 
L 115.363636 -52.2 
L 120.487603 -54.745455 
L 125.61157 -57.290909 
L 130.735537 -59.836364 
L 135.859504 -62.381818 
L 140.983471 -64.927273 
L 146.107438 -67.472727 
L 151.231405 -70.018182 
L 156.355372 -72.563636 
L 161.479339 -75.109091 
L 166.603306 -77.654545 
L 171.727273 -80.2 
L 176.85124 -82.745455 
L 181.975207 -85.290909 
L 187.099174 -87.836364 
L 192.22314 -90.381818 
L 197.347107 -92.927273 
L 202.471074 -95.472727 
L 207.595041 -98.018182 
L 212.719008 -100.563636 
L 217.842975 -103.109091 
L 222.966942 -105.654545 
L 228.090909 -108.2 
L 233.214876 -110.745455 
L 238.338843 -113.290909 
L 243.46281 -115.836364 
L 248.586777 -118.381818 
L 253.710744 -120.927273 
L 258.834711 -123.472727 
L 263.958678 -126.018182 
L 269.082645 -128.563636 
L 274.206612 -131.109091 
L 279.330579 -133.654545 
L 284.454545 -136.2 
L 289.578512 -138.745455 
L 294.702479 -141.290909 
L 299.826446 -143.836364 
L 304.950413 -146.381818 
L 310.07438 -148.927273 
L 315.198347 -151.472727 
L 320.322314 -154.018182 
L 325.446281 -156.563636 
L 330.570248 -159.109091 
L 335.694215 -161.654545 
L 340.818182 -164.2 
L 345.942149 -166.745455 
L 351.066116 -169.290909 
L 356.190083 -171.836364 
L 361.31405 -174.381818 
L 366.438017 -176.927273 
L 371.561983 -179.472727 
L 376.68595 -182.018182 
L 381.809917 -184.563636 
L 386.933884 -187.109091 
L 392.057851 -189.654545 
L 397.181818 -192.2 
L 402.305785 -194.745455 
L 407.429752 -197.290909 
L 412.553719 -199.836364 
L 417.677686 -202.381818 
L 422.801653 -204.927273 
L 427.92562 -207.472727 
L 433.049587 -210.018182 
L 438.173554 -212.563636 
L 443.297521 -215.109091 
L 448.421488 -217.654545 
L 453.545455 -220.2 
L 458.669421 -219.626179 
L 463.793388 -218.593622 
L 468.917355 -217.561065 
L 474.041322 -216.528508 
L 479.165289 -215.495951 
L 484.289256 -214.463394 
L 489.413223 -213.430837 
L 494.53719 -212.39828 
L 499.661157 -211.365723 
L 504.785124 -210.333166 
L 509.909091 -209.300609 
L 515.033058 -208.268052 
L 520.157025 -207.235495 
L 525.280992 -206.202938 
L 530.404959 -205.170381 
L 535.528926 -204.137824 
L 540.652893 -203.105267 
L 545.77686 -202.07271 
L 550.900826 -201.040153 
L 556.024793 -200.007596 
L 561.14876 -198.975039 
L 566.272727 -197.942482 
L 571.396694 -196.909925 
L 576.520661 -195.877368 
L 581.644628 -194.844812 
L 586.768595 -193.812255 
L 591.892562 -192.779698 
L 597.016529 -191.747141 
L 602.140496 -190.714584 
L 607.264463 -189.682027 
L 612.38843 -188.64947 
L 617.512397 -187.616913 
L 622.636364 -186.879174 
L 622.636364 -186.584356 
L 622.636364 -186.584356 
L 617.512397 -186.114531 
L 612.38843 -185.349889 
L 607.264463 -184.585246 
L 602.140496 -183.820604 
L 597.016529 -183.055961 
L 591.892562 -182.291319 
L 586.768595 -181.526677 
L 581.644628 -180.762034 
L 576.520661 -179.997392 
L 571.396694 -179.232749 
L 566.272727 -178.468107 
L 561.14876 -177.703464 
L 556.024793 -176.938822 
L 550.900826 -176.174179 
L 545.77686 -175.409537 
L 540.652893 -174.644894 
L 535.528926 -173.880252 
L 530.404959 -173.115609 
L 525.280992 -172.350967 
L 520.157025 -171.586324 
L 515.033058 -170.821682 
L 509.909091 -170.057039 
L 504.785124 -169.292397 
L 499.661157 -168.527755 
L 494.53719 -167.763112 
L 489.413223 -166.99847 
L 484.289256 -166.233827 
L 479.165289 -165.469185 
L 474.041322 -164.704542 
L 468.917355 -163.9399 
L 463.793388 -163.175257 
L 458.669421 -162.410615 
L 453.545455 -161.645972 
L 448.421488 -160.88133 
L 443.297521 -160.116687 
L 438.173554 -159.352045 
L 433.049587 -158.587402 
L 427.92562 -157.82276 
L 422.801653 -157.058117 
L 417.677686 -156.293475 
L 412.553719 -155.528832 
L 407.429752 -154.76419 
L 402.305785 -153.999548 
L 397.181818 -153.234905 
L 392.057851 -152.470263 
L 386.933884 -151.70562 
L 381.809917 -150.940978 
L 376.68595 -150.176335 
L 371.561983 -149.411693 
L 366.438017 -148.64705 
L 361.31405 -147.882408 
L 356.190083 -147.117765 
L 351.066116 -146.353123 
L 345.942149 -145.58848 
L 340.818182 -144.823838 
L 335.694215 -144.059195 
L 330.570248 -143.294553 
L 325.446281 -142.52991 
L 320.322314 -141.765268 
L 315.198347 -141.000626 
L 310.07438 -140.235983 
L 304.950413 -139.471341 
L 299.826446 -138.706698 
L 294.702479 -137.942056 
L 289.578512 -137.177413 
L 284.454545 -136.2 
L 279.330579 -133.654545 
L 274.206612 -131.109091 
L 269.082645 -128.563636 
L 263.958678 -126.018182 
L 258.834711 -123.472727 
L 253.710744 -120.927273 
L 248.586777 -118.381818 
L 243.46281 -115.836364 
L 238.338843 -113.290909 
L 233.214876 -110.745455 
L 228.090909 -108.2 
L 222.966942 -105.654545 
L 217.842975 -103.109091 
L 212.719008 -100.563636 
L 207.595041 -98.018182 
L 202.471074 -95.472727 
L 197.347107 -92.927273 
L 192.22314 -90.381818 
L 187.099174 -87.836364 
L 181.975207 -85.290909 
L 176.85124 -82.745455 
L 171.727273 -80.2 
L 166.603306 -77.654545 
L 161.479339 -75.109091 
L 156.355372 -72.563636 
L 151.231405 -70.018182 
L 146.107438 -67.472727 
L 140.983471 -64.927273 
L 135.859504 -62.381818 
L 130.735537 -59.836364 
L 125.61157 -57.290909 
L 120.487603 -54.745455 
L 115.363636 -52.2 
z
" style="stroke: #808080; stroke-opacity: 0.5"/>
    </defs>
    <g clip-path="url(#p73224241aa)">
     <use xlink:href="#m111b106abd" x="0" y="360" style="fill: #808080; fill-opacity: 0.5; stroke: #808080; stroke-opacity: 0.5"/>
    </g>
   </g>
   <g id="line2d_31">
    <path d="M 115.363636 71.192504 
L 120.487603 72.225061 
L 125.61157 73.257618 
L 130.735537 74.290175 
L 135.859504 75.322732 
L 140.983471 76.355289 
L 146.107438 77.387846 
L 151.231405 78.420403 
L 156.355372 79.45296 
L 161.479339 80.485517 
L 166.603306 81.518074 
L 171.727273 82.550631 
L 176.85124 83.583187 
L 181.975207 84.615744 
L 187.099174 85.648301 
L 192.22314 86.680858 
L 197.347107 87.713415 
L 202.471074 88.745972 
L 207.595041 89.778529 
L 212.719008 90.811086 
L 217.842975 91.843643 
L 222.966942 92.8762 
L 228.090909 93.908757 
L 233.214876 94.941314 
L 238.338843 95.973871 
L 243.46281 97.006428 
L 248.586777 98.038985 
L 253.710744 99.071542 
L 258.834711 100.104099 
L 263.958678 101.136656 
L 269.082645 102.169213 
L 274.206612 103.20177 
L 279.330579 104.234327 
L 284.454545 105.266884 
L 289.578512 106.299441 
L 294.702479 107.331998 
L 299.826446 108.364555 
L 304.950413 109.397112 
L 310.07438 110.429669 
L 315.198347 111.462226 
L 320.322314 112.494783 
L 325.446281 113.52734 
L 330.570248 114.559897 
L 335.694215 115.592454 
L 340.818182 116.625011 
L 345.942149 117.657568 
L 351.066116 118.690125 
L 356.190083 119.722682 
L 361.31405 120.755239 
L 366.438017 121.787796 
L 371.561983 122.820353 
L 376.68595 123.852909 
L 381.809917 124.885466 
L 386.933884 125.918023 
L 392.057851 126.95058 
L 397.181818 127.983137 
L 402.305785 129.015694 
L 407.429752 130.048251 
L 412.553719 131.080808 
L 417.677686 132.113365 
L 422.801653 133.145922 
L 427.92562 134.178479 
L 433.049587 135.211036 
L 438.173554 136.243593 
L 443.297521 137.27615 
L 448.421488 138.308707 
L 453.545455 139.341264 
L 458.669421 140.373821 
L 463.793388 141.406378 
L 468.917355 142.438935 
L 474.041322 143.471492 
L 479.165289 144.504049 
L 484.289256 145.536606 
L 489.413223 146.569163 
L 494.53719 147.60172 
L 499.661157 148.634277 
L 504.785124 149.666834 
L 509.909091 150.699391 
L 515.033058 151.731948 
L 520.157025 152.764505 
L 525.280992 153.797062 
L 530.404959 154.829619 
L 535.528926 155.862176 
L 540.652893 156.894733 
L 545.77686 157.92729 
L 550.900826 158.959847 
L 556.024793 159.992404 
L 561.14876 161.024961 
L 566.272727 162.057518 
L 571.396694 163.090075 
L 576.520661 164.122632 
L 581.644628 165.155188 
L 586.768595 166.187745 
L 591.892562 167.220302 
L 597.016529 168.252859 
L 602.140496 169.285416 
L 607.264463 170.317973 
L 612.38843 171.35053 
L 617.512397 172.383087 
L 622.636364 173.415644 
" clip-path="url(#p73224241aa)" style="fill: none; stroke-dasharray: 5.55,2.4; stroke-dashoffset: 0; stroke: #cd5c5c; stroke-width: 1.5"/>
   </g>
   <g id="line2d_32">
    <path d="M 115.363636 248.820431 
L 120.487603 248.055788 
L 125.61157 247.291146 
L 130.735537 246.526503 
L 135.859504 245.761861 
L 140.983471 244.997219 
L 146.107438 244.232576 
L 151.231405 243.467934 
L 156.355372 242.703291 
L 161.479339 241.938649 
L 166.603306 241.174006 
L 171.727273 240.409364 
L 176.85124 239.644721 
L 181.975207 238.880079 
L 187.099174 238.115436 
L 192.22314 237.350794 
L 197.347107 236.586151 
L 202.471074 235.821509 
L 207.595041 235.056866 
L 212.719008 234.292224 
L 217.842975 233.527581 
L 222.966942 232.762939 
L 228.090909 231.998296 
L 233.214876 231.233654 
L 238.338843 230.469012 
L 243.46281 229.704369 
L 248.586777 228.939727 
L 253.710744 228.175084 
L 258.834711 227.410442 
L 263.958678 226.645799 
L 269.082645 225.881157 
L 274.206612 225.116514 
L 279.330579 224.351872 
L 284.454545 223.587229 
L 289.578512 222.822587 
L 294.702479 222.057944 
L 299.826446 221.293302 
L 304.950413 220.528659 
L 310.07438 219.764017 
L 315.198347 218.999374 
L 320.322314 218.234732 
L 325.446281 217.47009 
L 330.570248 216.705447 
L 335.694215 215.940805 
L 340.818182 215.176162 
L 345.942149 214.41152 
L 351.066116 213.646877 
L 356.190083 212.882235 
L 361.31405 212.117592 
L 366.438017 211.35295 
L 371.561983 210.588307 
L 376.68595 209.823665 
L 381.809917 209.059022 
L 386.933884 208.29438 
L 392.057851 207.529737 
L 397.181818 206.765095 
L 402.305785 206.000452 
L 407.429752 205.23581 
L 412.553719 204.471168 
L 417.677686 203.706525 
L 422.801653 202.941883 
L 427.92562 202.17724 
L 433.049587 201.412598 
L 438.173554 200.647955 
L 443.297521 199.883313 
L 448.421488 199.11867 
L 453.545455 198.354028 
L 458.669421 197.589385 
L 463.793388 196.824743 
L 468.917355 196.0601 
L 474.041322 195.295458 
L 479.165289 194.530815 
L 484.289256 193.766173 
L 489.413223 193.00153 
L 494.53719 192.236888 
L 499.661157 191.472245 
L 504.785124 190.707603 
L 509.909091 189.942961 
L 515.033058 189.178318 
L 520.157025 188.413676 
L 525.280992 187.649033 
L 530.404959 186.884391 
L 535.528926 186.119748 
L 540.652893 185.355106 
L 545.77686 184.590463 
L 550.900826 183.825821 
L 556.024793 183.061178 
L 561.14876 182.296536 
L 566.272727 181.531893 
L 571.396694 180.767251 
L 576.520661 180.002608 
L 581.644628 179.237966 
L 586.768595 178.473323 
L 591.892562 177.708681 
L 597.016529 176.944039 
L 602.140496 176.179396 
L 607.264463 175.414754 
L 612.38843 174.650111 
L 617.512397 173.885469 
L 622.636364 173.120826 
" clip-path="url(#p73224241aa)" style="fill: none; stroke-dasharray: 1.5,2.475; stroke-dashoffset: 0; stroke: #008080; stroke-width: 1.5"/>
   </g>
   <g id="line2d_33">
    <path d="M 115.363636 307.8 
L 120.487603 305.254545 
L 125.61157 302.709091 
L 130.735537 300.163636 
L 135.859504 297.618182 
L 140.983471 295.072727 
L 146.107438 292.527273 
L 151.231405 289.981818 
L 156.355372 287.436364 
L 161.479339 284.890909 
L 166.603306 282.345455 
L 171.727273 279.8 
L 176.85124 277.254545 
L 181.975207 274.709091 
L 187.099174 272.163636 
L 192.22314 269.618182 
L 197.347107 267.072727 
L 202.471074 264.527273 
L 207.595041 261.981818 
L 212.719008 259.436364 
L 217.842975 256.890909 
L 222.966942 254.345455 
L 228.090909 251.8 
L 233.214876 249.254545 
L 238.338843 246.709091 
L 243.46281 244.163636 
L 248.586777 241.618182 
L 253.710744 239.072727 
L 258.834711 236.527273 
L 263.958678 233.981818 
L 269.082645 231.436364 
L 274.206612 228.890909 
L 279.330579 226.345455 
L 284.454545 223.8 
L 289.578512 221.254545 
L 294.702479 218.709091 
L 299.826446 216.163636 
L 304.950413 213.618182 
L 310.07438 211.072727 
L 315.198347 208.527273 
L 320.322314 205.981818 
L 325.446281 203.436364 
L 330.570248 200.890909 
L 335.694215 198.345455 
L 340.818182 195.8 
L 345.942149 193.254545 
L 351.066116 190.709091 
L 356.190083 188.163636 
L 361.31405 185.618182 
L 366.438017 183.072727 
L 371.561983 180.527273 
L 376.68595 177.981818 
L 381.809917 175.436364 
L 386.933884 172.890909 
L 392.057851 170.345455 
L 397.181818 167.8 
L 402.305785 165.254545 
L 407.429752 162.709091 
L 412.553719 160.163636 
L 417.677686 157.618182 
L 422.801653 155.072727 
L 427.92562 152.527273 
L 433.049587 149.981818 
L 438.173554 147.436364 
L 443.297521 144.890909 
L 448.421488 142.345455 
L 453.545455 139.8 
L 458.669421 137.254545 
L 463.793388 134.709091 
L 468.917355 132.163636 
L 474.041322 129.618182 
L 479.165289 127.072727 
L 484.289256 124.527273 
L 489.413223 121.981818 
L 494.53719 119.436364 
L 499.661157 116.890909 
L 504.785124 114.345455 
L 509.909091 111.8 
L 515.033058 109.254545 
L 520.157025 106.709091 
L 525.280992 104.163636 
L 530.404959 101.618182 
L 535.528926 99.072727 
L 540.652893 96.527273 
L 545.77686 93.981818 
L 550.900826 91.436364 
L 556.024793 88.890909 
L 561.14876 86.345455 
L 566.272727 83.8 
L 571.396694 81.254545 
L 576.520661 78.709091 
L 581.644628 76.163636 
L 586.768595 73.618182 
L 591.892562 71.072727 
L 597.016529 68.527273 
L 602.140496 65.981818 
L 607.264463 63.436364 
L 612.38843 60.890909 
L 617.512397 58.345455 
L 622.636364 55.8 
" clip-path="url(#p73224241aa)" style="fill: none; stroke-dasharray: 9.6,2.4,1.5,2.4; stroke-dashoffset: 0; stroke: #ff00ff; stroke-width: 1.5"/>
   </g>
   <g id="patch_3">
    <path d="M 90 320.4 
L 90 43.2 
" style="fill: none"/>
   </g>
   <g id="patch_4">
    <path d="M 648 320.4 
L 648 43.2 
" style="fill: none"/>
   </g>
   <g id="patch_5">
    <path d="M 90 320.4 
L 648 320.4 
" style="fill: none"/>
   </g>
   <g id="patch_6">
    <path d="M 90 43.2 
L 648 43.2 
" style="fill: none"/>
   </g>
   <g id="text_18">
    <!-- $6.2x_1 + 6.6x_2 = 83$ -->
    <g style="fill: #cd5c5c" transform="translate(587.393752 145.293416) rotate(-346) scale(0.1 -0.1)">
     <defs>
      <path id="DejaVuSans-36" d="M 2113 2584 
Q 1688 2584 1439 2293 
Q 1191 2003 1191 1497 
Q 1191 994 1439 701 
Q 1688 409 2113 409 
Q 2538 409 2786 701 
Q 3034 994 3034 1497 
Q 3034 2003 2786 2293 
Q 2538 2584 2113 2584 
z
M 3366 4563 
L 3366 3988 
Q 3128 4100 2886 4159 
Q 2644 4219 2406 4219 
Q 1781 4219 1451 3797 
Q 1122 3375 1075 2522 
Q 1259 2794 1537 2939 
Q 1816 3084 2150 3084 
Q 2853 3084 3261 2657 
Q 3669 2231 3669 1497 
Q 3669 778 3244 343 
Q 2819 -91 2113 -91 
Q 1303 -91 875 529 
Q 447 1150 447 2328 
Q 447 3434 972 4092 
Q 1497 4750 2381 4750 
Q 2619 4750 2861 4703 
Q 3103 4656 3366 4563 
z
" transform="scale(0.015625)"/>
      <path id="DejaVuSans-2e" d="M 684 794 
L 1344 794 
L 1344 0 
L 684 0 
L 684 794 
z
" transform="scale(0.015625)"/>
      <path id="DejaVuSans-2b" d="M 2944 4013 
L 2944 2272 
L 4684 2272 
L 4684 1741 
L 2944 1741 
L 2944 0 
L 2419 0 
L 2419 1741 
L 678 1741 
L 678 2272 
L 2419 2272 
L 2419 4013 
L 2944 4013 
z
" transform="scale(0.015625)"/>
      <path id="DejaVuSans-3d" d="M 678 2906 
L 4684 2906 
L 4684 2381 
L 678 2381 
L 678 2906 
z
M 678 1631 
L 4684 1631 
L 4684 1100 
L 678 1100 
L 678 1631 
z
" transform="scale(0.015625)"/>
      <path id="DejaVuSans-38" d="M 2034 2216 
Q 1584 2216 1326 1975 
Q 1069 1734 1069 1313 
Q 1069 891 1326 650 
Q 1584 409 2034 409 
Q 2484 409 2743 651 
Q 3003 894 3003 1313 
Q 3003 1734 2745 1975 
Q 2488 2216 2034 2216 
z
M 1403 2484 
Q 997 2584 770 2862 
Q 544 3141 544 3541 
Q 544 4100 942 4425 
Q 1341 4750 2034 4750 
Q 2731 4750 3128 4425 
Q 3525 4100 3525 3541 
Q 3525 3141 3298 2862 
Q 3072 2584 2669 2484 
Q 3125 2378 3379 2068 
Q 3634 1759 3634 1313 
Q 3634 634 3220 271 
Q 2806 -91 2034 -91 
Q 1263 -91 848 271 
Q 434 634 434 1313 
Q 434 1759 690 2068 
Q 947 2378 1403 2484 
z
M 1172 3481 
Q 1172 3119 1398 2916 
Q 1625 2713 2034 2713 
Q 2441 2713 2670 2916 
Q 2900 3119 2900 3481 
Q 2900 3844 2670 4047 
Q 2441 4250 2034 4250 
Q 1625 4250 1398 4047 
Q 1172 3844 1172 3481 
z
" transform="scale(0.015625)"/>
      <path id="DejaVuSans-33" d="M 2597 2516 
Q 3050 2419 3304 2112 
Q 3559 1806 3559 1356 
Q 3559 666 3084 287 
Q 2609 -91 1734 -91 
Q 1441 -91 1130 -33 
Q 819 25 488 141 
L 488 750 
Q 750 597 1062 519 
Q 1375 441 1716 441 
Q 2309 441 2620 675 
Q 2931 909 2931 1356 
Q 2931 1769 2642 2001 
Q 2353 2234 1838 2234 
L 1294 2234 
L 1294 2753 
L 1863 2753 
Q 2328 2753 2575 2939 
Q 2822 3125 2822 3475 
Q 2822 3834 2567 4026 
Q 2313 4219 1838 4219 
Q 1578 4219 1281 4162 
Q 984 4106 628 3988 
L 628 4550 
Q 988 4650 1302 4700 
Q 1616 4750 1894 4750 
Q 2613 4750 3031 4423 
Q 3450 4097 3450 3541 
Q 3450 3153 3228 2886 
Q 3006 2619 2597 2516 
z
" transform="scale(0.015625)"/>
     </defs>
     <use xlink:href="#DejaVuSans-36" transform="translate(0 0.78125)"/>
     <use xlink:href="#DejaVuSans-2e" transform="translate(63.623047 0.78125)"/>
     <use xlink:href="#DejaVuSans-32" transform="translate(89.910156 0.78125)"/>
     <use xlink:href="#DejaVuSans-Oblique-78" transform="translate(153.533203 0.78125)"/>
     <use xlink:href="#DejaVuSans-31" transform="translate(212.712891 -15.625) scale(0.7)"/>
     <use xlink:href="#DejaVuSans-2b" transform="translate(279.46582 0.78125)"/>
     <use xlink:href="#DejaVuSans-36" transform="translate(382.737305 0.78125)"/>
     <use xlink:href="#DejaVuSans-2e" transform="translate(446.360352 0.78125)"/>
     <use xlink:href="#DejaVuSans-36" transform="translate(478.147461 0.78125)"/>
     <use xlink:href="#DejaVuSans-Oblique-78" transform="translate(541.770508 0.78125)"/>
     <use xlink:href="#DejaVuSans-32" transform="translate(600.950195 -15.625) scale(0.7)"/>
     <use xlink:href="#DejaVuSans-3d" transform="translate(667.703125 0.78125)"/>
     <use xlink:href="#DejaVuSans-38" transform="translate(770.974609 0.78125)"/>
     <use xlink:href="#DejaVuSans-33" transform="translate(834.597656 0.78125)"/>
    </g>
   </g>
   <g id="text_19">
    <!-- $-9.6x_1 + -13.8x_2 = -72$ -->
    <g style="fill: #008080" transform="translate(572.968685 158.893248) rotate(-350) scale(0.1 -0.1)">
     <defs>
      <path id="DejaVuSans-2212" d="M 678 2272 
L 4684 2272 
L 4684 1741 
L 678 1741 
L 678 2272 
z
" transform="scale(0.015625)"/>
      <path id="DejaVuSans-39" d="M 703 97 
L 703 672 
Q 941 559 1184 500 
Q 1428 441 1663 441 
Q 2288 441 2617 861 
Q 2947 1281 2994 2138 
Q 2813 1869 2534 1725 
Q 2256 1581 1919 1581 
Q 1219 1581 811 2004 
Q 403 2428 403 3163 
Q 403 3881 828 4315 
Q 1253 4750 1959 4750 
Q 2769 4750 3195 4129 
Q 3622 3509 3622 2328 
Q 3622 1225 3098 567 
Q 2575 -91 1691 -91 
Q 1453 -91 1209 -44 
Q 966 3 703 97 
z
M 1959 2075 
Q 2384 2075 2632 2365 
Q 2881 2656 2881 3163 
Q 2881 3666 2632 3958 
Q 2384 4250 1959 4250 
Q 1534 4250 1286 3958 
Q 1038 3666 1038 3163 
Q 1038 2656 1286 2365 
Q 1534 2075 1959 2075 
z
" transform="scale(0.015625)"/>
      <path id="DejaVuSans-37" d="M 525 4666 
L 3525 4666 
L 3525 4397 
L 1831 0 
L 1172 0 
L 2766 4134 
L 525 4134 
L 525 4666 
z
" transform="scale(0.015625)"/>
     </defs>
     <use xlink:href="#DejaVuSans-2212" transform="translate(0 0.78125)"/>
     <use xlink:href="#DejaVuSans-39" transform="translate(83.789062 0.78125)"/>
     <use xlink:href="#DejaVuSans-2e" transform="translate(147.412109 0.78125)"/>
     <use xlink:href="#DejaVuSans-36" transform="translate(179.199219 0.78125)"/>
     <use xlink:href="#DejaVuSans-Oblique-78" transform="translate(242.822266 0.78125)"/>
     <use xlink:href="#DejaVuSans-31" transform="translate(302.001953 -15.625) scale(0.7)"/>
     <use xlink:href="#DejaVuSans-2b" transform="translate(368.754883 0.78125)"/>
     <use xlink:href="#DejaVuSans-2212" transform="translate(491.508789 0.78125)"/>
     <use xlink:href="#DejaVuSans-31" transform="translate(594.780273 0.78125)"/>
     <use xlink:href="#DejaVuSans-33" transform="translate(658.40332 0.78125)"/>
     <use xlink:href="#DejaVuSans-2e" transform="translate(722.026367 0.78125)"/>
     <use xlink:href="#DejaVuSans-38" transform="translate(751.188477 0.78125)"/>
     <use xlink:href="#DejaVuSans-Oblique-78" transform="translate(814.811523 0.78125)"/>
     <use xlink:href="#DejaVuSans-32" transform="translate(873.991211 -15.625) scale(0.7)"/>
     <use xlink:href="#DejaVuSans-3d" transform="translate(940.744141 0.78125)"/>
     <use xlink:href="#DejaVuSans-2212" transform="translate(1063.498047 0.78125)"/>
     <use xlink:href="#DejaVuSans-37" transform="translate(1166.769531 0.78125)"/>
     <use xlink:href="#DejaVuSans-32" transform="translate(1230.392578 0.78125)"/>
    </g>
   </g>
   <g id="text_20">
    <!-- $-13.2x_1 + 5.7x_2 = 305$ -->
    <g style="fill: #ff00ff" transform="translate(602.073567 20.94604) rotate(-334) scale(0.1 -0.1)">
     <defs>
      <path id="DejaVuSans-35" d="M 691 4666 
L 3169 4666 
L 3169 4134 
L 1269 4134 
L 1269 2991 
Q 1406 3038 1543 3061 
Q 1681 3084 1819 3084 
Q 2600 3084 3056 2656 
Q 3513 2228 3513 1497 
Q 3513 744 3044 326 
Q 2575 -91 1722 -91 
Q 1428 -91 1123 -41 
Q 819 9 494 109 
L 494 744 
Q 775 591 1075 516 
Q 1375 441 1709 441 
Q 2250 441 2565 725 
Q 2881 1009 2881 1497 
Q 2881 1984 2565 2268 
Q 2250 2553 1709 2553 
Q 1456 2553 1204 2497 
Q 953 2441 691 2322 
L 691 4666 
z
" transform="scale(0.015625)"/>
      <path id="DejaVuSans-30" d="M 2034 4250 
Q 1547 4250 1301 3770 
Q 1056 3291 1056 2328 
Q 1056 1369 1301 889 
Q 1547 409 2034 409 
Q 2525 409 2770 889 
Q 3016 1369 3016 2328 
Q 3016 3291 2770 3770 
Q 2525 4250 2034 4250 
z
M 2034 4750 
Q 2819 4750 3233 4129 
Q 3647 3509 3647 2328 
Q 3647 1150 3233 529 
Q 2819 -91 2034 -91 
Q 1250 -91 836 529 
Q 422 1150 422 2328 
Q 422 3509 836 4129 
Q 1250 4750 2034 4750 
z
" transform="scale(0.015625)"/>
     </defs>
     <use xlink:href="#DejaVuSans-2212" transform="translate(0 0.78125)"/>
     <use xlink:href="#DejaVuSans-31" transform="translate(83.789062 0.78125)"/>
     <use xlink:href="#DejaVuSans-33" transform="translate(147.412109 0.78125)"/>
     <use xlink:href="#DejaVuSans-2e" transform="translate(211.035156 0.78125)"/>
     <use xlink:href="#DejaVuSans-32" transform="translate(237.322266 0.78125)"/>
     <use xlink:href="#DejaVuSans-Oblique-78" transform="translate(300.945312 0.78125)"/>
     <use xlink:href="#DejaVuSans-31" transform="translate(360.125 -15.625) scale(0.7)"/>
     <use xlink:href="#DejaVuSans-2b" transform="translate(426.87793 0.78125)"/>
     <use xlink:href="#DejaVuSans-35" transform="translate(530.149414 0.78125)"/>
     <use xlink:href="#DejaVuSans-2e" transform="translate(593.772461 0.78125)"/>
     <use xlink:href="#DejaVuSans-37" transform="translate(617.80957 0.78125)"/>
     <use xlink:href="#DejaVuSans-Oblique-78" transform="translate(681.432617 0.78125)"/>
     <use xlink:href="#DejaVuSans-32" transform="translate(740.612305 -15.625) scale(0.7)"/>
     <use xlink:href="#DejaVuSans-3d" transform="translate(807.365234 0.78125)"/>
     <use xlink:href="#DejaVuSans-33" transform="translate(910.636719 0.78125)"/>
     <use xlink:href="#DejaVuSans-30" transform="translate(974.259766 0.78125)"/>
     <use xlink:href="#DejaVuSans-35" transform="translate(1037.882812 0.78125)"/>
    </g>
   </g>
   <g id="text_21">
    <!-- (10.88, 2.35) -->
    <g style="fill: #000080" transform="translate(583.446594 168.24626) scale(0.1 -0.1)">
     <defs>
      <path id="ArialMT-28" d="M 1497 -1347 
Q 1031 -759 709 28 
Q 388 816 388 1659 
Q 388 2403 628 3084 
Q 909 3875 1497 4659 
L 1900 4659 
Q 1522 4009 1400 3731 
Q 1209 3300 1100 2831 
Q 966 2247 966 1656 
Q 966 153 1900 -1347 
L 1497 -1347 
z
" transform="scale(0.015625)"/>
      <path id="ArialMT-2e" d="M 581 0 
L 581 641 
L 1222 641 
L 1222 0 
L 581 0 
z
" transform="scale(0.015625)"/>
      <path id="ArialMT-38" d="M 1131 2484 
Q 781 2613 612 2850 
Q 444 3088 444 3419 
Q 444 3919 803 4259 
Q 1163 4600 1759 4600 
Q 2359 4600 2725 4251 
Q 3091 3903 3091 3403 
Q 3091 3084 2923 2848 
Q 2756 2613 2416 2484 
Q 2838 2347 3058 2040 
Q 3278 1734 3278 1309 
Q 3278 722 2862 322 
Q 2447 -78 1769 -78 
Q 1091 -78 675 323 
Q 259 725 259 1325 
Q 259 1772 486 2073 
Q 713 2375 1131 2484 
z
M 1019 3438 
Q 1019 3113 1228 2906 
Q 1438 2700 1772 2700 
Q 2097 2700 2305 2904 
Q 2513 3109 2513 3406 
Q 2513 3716 2298 3927 
Q 2084 4138 1766 4138 
Q 1444 4138 1231 3931 
Q 1019 3725 1019 3438 
z
M 838 1322 
Q 838 1081 952 856 
Q 1066 631 1291 507 
Q 1516 384 1775 384 
Q 2178 384 2440 643 
Q 2703 903 2703 1303 
Q 2703 1709 2433 1975 
Q 2163 2241 1756 2241 
Q 1359 2241 1098 1978 
Q 838 1716 838 1322 
z
" transform="scale(0.015625)"/>
      <path id="ArialMT-2c" d="M 569 0 
L 569 641 
L 1209 641 
L 1209 0 
Q 1209 -353 1084 -570 
Q 959 -788 688 -906 
L 531 -666 
Q 709 -588 793 -436 
Q 878 -284 888 0 
L 569 0 
z
" transform="scale(0.015625)"/>
      <path id="ArialMT-20" transform="scale(0.015625)"/>
      <path id="ArialMT-29" d="M 791 -1347 
L 388 -1347 
Q 1322 153 1322 1656 
Q 1322 2244 1188 2822 
Q 1081 3291 891 3722 
Q 769 4003 388 4659 
L 791 4659 
Q 1378 3875 1659 3084 
Q 1900 2403 1900 1659 
Q 1900 816 1576 28 
Q 1253 -759 791 -1347 
z
" transform="scale(0.015625)"/>
     </defs>
     <use xlink:href="#ArialMT-28"/>
     <use xlink:href="#ArialMT-31" x="33.300781"/>
     <use xlink:href="#ArialMT-30" x="88.916016"/>
     <use xlink:href="#ArialMT-2e" x="144.53125"/>
     <use xlink:href="#ArialMT-38" x="172.314453"/>
     <use xlink:href="#ArialMT-38" x="227.929688"/>
     <use xlink:href="#ArialMT-2c" x="283.544922"/>
     <use xlink:href="#ArialMT-20" x="311.328125"/>
     <use xlink:href="#ArialMT-32" x="339.111328"/>
     <use xlink:href="#ArialMT-2e" x="394.726562"/>
     <use xlink:href="#ArialMT-33" x="422.509766"/>
     <use xlink:href="#ArialMT-35" x="478.125"/>
     <use xlink:href="#ArialMT-29" x="533.740234"/>
    </g>
   </g>
   <g id="text_22">
    <!-- (-12.57, 24.39) -->
    <g style="fill: #000080" transform="translate(411.407866 134.473648) scale(0.1 -0.1)">
     <defs>
      <path id="ArialMT-2d" d="M 203 1375 
L 203 1941 
L 1931 1941 
L 1931 1375 
L 203 1375 
z
" transform="scale(0.015625)"/>
      <path id="ArialMT-39" d="M 350 1059 
L 891 1109 
Q 959 728 1153 556 
Q 1347 384 1650 384 
Q 1909 384 2104 503 
Q 2300 622 2425 820 
Q 2550 1019 2634 1356 
Q 2719 1694 2719 2044 
Q 2719 2081 2716 2156 
Q 2547 1888 2255 1720 
Q 1963 1553 1622 1553 
Q 1053 1553 659 1965 
Q 266 2378 266 3053 
Q 266 3750 677 4175 
Q 1088 4600 1706 4600 
Q 2153 4600 2523 4359 
Q 2894 4119 3086 3673 
Q 3278 3228 3278 2384 
Q 3278 1506 3087 986 
Q 2897 466 2520 194 
Q 2144 -78 1638 -78 
Q 1100 -78 759 220 
Q 419 519 350 1059 
z
M 2653 3081 
Q 2653 3566 2395 3850 
Q 2138 4134 1775 4134 
Q 1400 4134 1122 3828 
Q 844 3522 844 3034 
Q 844 2597 1108 2323 
Q 1372 2050 1759 2050 
Q 2150 2050 2401 2323 
Q 2653 2597 2653 3081 
z
" transform="scale(0.015625)"/>
     </defs>
     <use xlink:href="#ArialMT-28"/>
     <use xlink:href="#ArialMT-2d" x="33.300781"/>
     <use xlink:href="#ArialMT-31" x="66.601562"/>
     <use xlink:href="#ArialMT-32" x="122.216797"/>
     <use xlink:href="#ArialMT-2e" x="177.832031"/>
     <use xlink:href="#ArialMT-35" x="205.615234"/>
     <use xlink:href="#ArialMT-37" x="261.230469"/>
     <use xlink:href="#ArialMT-2c" x="316.845703"/>
     <use xlink:href="#ArialMT-20" x="344.628906"/>
     <use xlink:href="#ArialMT-32" x="372.412109"/>
     <use xlink:href="#ArialMT-34" x="428.027344"/>
     <use xlink:href="#ArialMT-2e" x="483.642578"/>
     <use xlink:href="#ArialMT-33" x="511.425781"/>
     <use xlink:href="#ArialMT-39" x="567.041016"/>
     <use xlink:href="#ArialMT-29" x="622.65625"/>
    </g>
   </g>
   <g id="text_23">
    <!-- (-36.25, -30.43) -->
    <g style="fill: #000080" transform="translate(240.60738 218.49587) scale(0.1 -0.1)">
     <use xlink:href="#ArialMT-28"/>
     <use xlink:href="#ArialMT-2d" x="33.300781"/>
     <use xlink:href="#ArialMT-33" x="66.601562"/>
     <use xlink:href="#ArialMT-36" x="122.216797"/>
     <use xlink:href="#ArialMT-2e" x="177.832031"/>
     <use xlink:href="#ArialMT-32" x="205.615234"/>
     <use xlink:href="#ArialMT-35" x="261.230469"/>
     <use xlink:href="#ArialMT-2c" x="316.845703"/>
     <use xlink:href="#ArialMT-20" x="344.628906"/>
     <use xlink:href="#ArialMT-2d" x="372.412109"/>
     <use xlink:href="#ArialMT-33" x="405.712891"/>
     <use xlink:href="#ArialMT-30" x="461.328125"/>
     <use xlink:href="#ArialMT-2e" x="516.943359"/>
     <use xlink:href="#ArialMT-34" x="544.726562"/>
     <use xlink:href="#ArialMT-33" x="600.341797"/>
     <use xlink:href="#ArialMT-29" x="655.957031"/>
    </g>
   </g>
   <g id="text_24">
    <!-- Intersection of three lines -->
    <g style="fill: #262626" transform="translate(285.209766 37.2) scale(0.15 -0.15)">
     <defs>
      <path id="ArialMT-49" d="M 597 0 
L 597 4581 
L 1203 4581 
L 1203 0 
L 597 0 
z
" transform="scale(0.015625)"/>
      <path id="ArialMT-6e" d="M 422 0 
L 422 3319 
L 928 3319 
L 928 2847 
Q 1294 3394 1984 3394 
Q 2284 3394 2536 3286 
Q 2788 3178 2913 3003 
Q 3038 2828 3088 2588 
Q 3119 2431 3119 2041 
L 3119 0 
L 2556 0 
L 2556 2019 
Q 2556 2363 2490 2533 
Q 2425 2703 2258 2804 
Q 2091 2906 1866 2906 
Q 1506 2906 1245 2678 
Q 984 2450 984 1813 
L 984 0 
L 422 0 
z
" transform="scale(0.015625)"/>
      <path id="ArialMT-74" d="M 1650 503 
L 1731 6 
Q 1494 -44 1306 -44 
Q 1000 -44 831 53 
Q 663 150 594 308 
Q 525 466 525 972 
L 525 2881 
L 113 2881 
L 113 3319 
L 525 3319 
L 525 4141 
L 1084 4478 
L 1084 3319 
L 1650 3319 
L 1650 2881 
L 1084 2881 
L 1084 941 
Q 1084 700 1114 631 
Q 1144 563 1211 522 
Q 1278 481 1403 481 
Q 1497 481 1650 503 
z
" transform="scale(0.015625)"/>
      <path id="ArialMT-65" d="M 2694 1069 
L 3275 997 
Q 3138 488 2766 206 
Q 2394 -75 1816 -75 
Q 1088 -75 661 373 
Q 234 822 234 1631 
Q 234 2469 665 2931 
Q 1097 3394 1784 3394 
Q 2450 3394 2872 2941 
Q 3294 2488 3294 1666 
Q 3294 1616 3291 1516 
L 816 1516 
Q 847 969 1125 678 
Q 1403 388 1819 388 
Q 2128 388 2347 550 
Q 2566 713 2694 1069 
z
M 847 1978 
L 2700 1978 
Q 2663 2397 2488 2606 
Q 2219 2931 1791 2931 
Q 1403 2931 1139 2672 
Q 875 2413 847 1978 
z
" transform="scale(0.015625)"/>
      <path id="ArialMT-72" d="M 416 0 
L 416 3319 
L 922 3319 
L 922 2816 
Q 1116 3169 1280 3281 
Q 1444 3394 1641 3394 
Q 1925 3394 2219 3213 
L 2025 2691 
Q 1819 2813 1613 2813 
Q 1428 2813 1281 2702 
Q 1134 2591 1072 2394 
Q 978 2094 978 1738 
L 978 0 
L 416 0 
z
" transform="scale(0.015625)"/>
      <path id="ArialMT-73" d="M 197 991 
L 753 1078 
Q 800 744 1014 566 
Q 1228 388 1613 388 
Q 2000 388 2187 545 
Q 2375 703 2375 916 
Q 2375 1106 2209 1216 
Q 2094 1291 1634 1406 
Q 1016 1563 777 1677 
Q 538 1791 414 1992 
Q 291 2194 291 2438 
Q 291 2659 392 2848 
Q 494 3038 669 3163 
Q 800 3259 1026 3326 
Q 1253 3394 1513 3394 
Q 1903 3394 2198 3281 
Q 2494 3169 2634 2976 
Q 2775 2784 2828 2463 
L 2278 2388 
Q 2241 2644 2061 2787 
Q 1881 2931 1553 2931 
Q 1166 2931 1000 2803 
Q 834 2675 834 2503 
Q 834 2394 903 2306 
Q 972 2216 1119 2156 
Q 1203 2125 1616 2013 
Q 2213 1853 2448 1751 
Q 2684 1650 2818 1456 
Q 2953 1263 2953 975 
Q 2953 694 2789 445 
Q 2625 197 2315 61 
Q 2006 -75 1616 -75 
Q 969 -75 630 194 
Q 291 463 197 991 
z
" transform="scale(0.015625)"/>
      <path id="ArialMT-63" d="M 2588 1216 
L 3141 1144 
Q 3050 572 2676 248 
Q 2303 -75 1759 -75 
Q 1078 -75 664 370 
Q 250 816 250 1647 
Q 250 2184 428 2587 
Q 606 2991 970 3192 
Q 1334 3394 1763 3394 
Q 2303 3394 2647 3120 
Q 2991 2847 3088 2344 
L 2541 2259 
Q 2463 2594 2264 2762 
Q 2066 2931 1784 2931 
Q 1359 2931 1093 2626 
Q 828 2322 828 1663 
Q 828 994 1084 691 
Q 1341 388 1753 388 
Q 2084 388 2306 591 
Q 2528 794 2588 1216 
z
" transform="scale(0.015625)"/>
      <path id="ArialMT-69" d="M 425 3934 
L 425 4581 
L 988 4581 
L 988 3934 
L 425 3934 
z
M 425 0 
L 425 3319 
L 988 3319 
L 988 0 
L 425 0 
z
" transform="scale(0.015625)"/>
      <path id="ArialMT-6f" d="M 213 1659 
Q 213 2581 725 3025 
Q 1153 3394 1769 3394 
Q 2453 3394 2887 2945 
Q 3322 2497 3322 1706 
Q 3322 1066 3130 698 
Q 2938 331 2570 128 
Q 2203 -75 1769 -75 
Q 1072 -75 642 372 
Q 213 819 213 1659 
z
M 791 1659 
Q 791 1022 1069 705 
Q 1347 388 1769 388 
Q 2188 388 2466 706 
Q 2744 1025 2744 1678 
Q 2744 2294 2464 2611 
Q 2184 2928 1769 2928 
Q 1347 2928 1069 2612 
Q 791 2297 791 1659 
z
" transform="scale(0.015625)"/>
      <path id="ArialMT-66" d="M 556 0 
L 556 2881 
L 59 2881 
L 59 3319 
L 556 3319 
L 556 3672 
Q 556 4006 616 4169 
Q 697 4388 901 4523 
Q 1106 4659 1475 4659 
Q 1713 4659 2000 4603 
L 1916 4113 
Q 1741 4144 1584 4144 
Q 1328 4144 1222 4034 
Q 1116 3925 1116 3625 
L 1116 3319 
L 1763 3319 
L 1763 2881 
L 1116 2881 
L 1116 0 
L 556 0 
z
" transform="scale(0.015625)"/>
      <path id="ArialMT-68" d="M 422 0 
L 422 4581 
L 984 4581 
L 984 2938 
Q 1378 3394 1978 3394 
Q 2347 3394 2619 3248 
Q 2891 3103 3008 2847 
Q 3125 2591 3125 2103 
L 3125 0 
L 2563 0 
L 2563 2103 
Q 2563 2525 2380 2717 
Q 2197 2909 1863 2909 
Q 1613 2909 1392 2779 
Q 1172 2650 1078 2428 
Q 984 2206 984 1816 
L 984 0 
L 422 0 
z
" transform="scale(0.015625)"/>
      <path id="ArialMT-6c" d="M 409 0 
L 409 4581 
L 972 4581 
L 972 0 
L 409 0 
z
" transform="scale(0.015625)"/>
     </defs>
     <use xlink:href="#ArialMT-49"/>
     <use xlink:href="#ArialMT-6e" x="27.783203"/>
     <use xlink:href="#ArialMT-74" x="83.398438"/>
     <use xlink:href="#ArialMT-65" x="111.181641"/>
     <use xlink:href="#ArialMT-72" x="166.796875"/>
     <use xlink:href="#ArialMT-73" x="200.097656"/>
     <use xlink:href="#ArialMT-65" x="250.097656"/>
     <use xlink:href="#ArialMT-63" x="305.712891"/>
     <use xlink:href="#ArialMT-74" x="355.712891"/>
     <use xlink:href="#ArialMT-69" x="383.496094"/>
     <use xlink:href="#ArialMT-6f" x="405.712891"/>
     <use xlink:href="#ArialMT-6e" x="461.328125"/>
     <use xlink:href="#ArialMT-20" x="516.943359"/>
     <use xlink:href="#ArialMT-6f" x="544.726562"/>
     <use xlink:href="#ArialMT-66" x="600.341797"/>
     <use xlink:href="#ArialMT-20" x="628.125"/>
     <use xlink:href="#ArialMT-74" x="655.908203"/>
     <use xlink:href="#ArialMT-68" x="683.691406"/>
     <use xlink:href="#ArialMT-72" x="739.306641"/>
     <use xlink:href="#ArialMT-65" x="772.607422"/>
     <use xlink:href="#ArialMT-65" x="828.222656"/>
     <use xlink:href="#ArialMT-20" x="883.837891"/>
     <use xlink:href="#ArialMT-6c" x="911.621094"/>
     <use xlink:href="#ArialMT-69" x="933.837891"/>
     <use xlink:href="#ArialMT-6e" x="956.054688"/>
     <use xlink:href="#ArialMT-65" x="1011.669922"/>
     <use xlink:href="#ArialMT-73" x="1067.285156"/>
    </g>
   </g>
   <g id="PathCollection_1">
    <defs>
     <path id="m3e0158c732" d="M 0 3 
C 0.795609 3 1.55874 2.683901 2.12132 2.12132 
C 2.683901 1.55874 3 0.795609 3 0 
C 3 -0.795609 2.683901 -1.55874 2.12132 -2.12132 
C 1.55874 -2.683901 0.795609 -3 0 -3 
C -0.795609 -3 -1.55874 -2.683901 -2.12132 -2.12132 
C -2.683901 -1.55874 -3 -0.795609 -3 0 
C -3 0.795609 -2.683901 1.55874 -2.12132 2.12132 
C -1.55874 2.683901 -0.795609 3 0 3 
z
" style="stroke: #000080"/>
    </defs>
    <g clip-path="url(#p73224241aa)">
     <use xlink:href="#m3e0158c732" x="621.795812" y="173.24626" style="fill: #000080; stroke: #000080"/>
    </g>
   </g>
   <g id="PathCollection_2">
    <g clip-path="url(#p73224241aa)">
     <use xlink:href="#m3e0158c732" x="454.202397" y="139.473648" style="fill: #000080; stroke: #000080"/>
    </g>
   </g>
   <g id="PathCollection_3">
    <g clip-path="url(#p73224241aa)">
     <use xlink:href="#m3e0158c732" x="285.066755" y="223.49587" style="fill: #000080; stroke: #000080"/>
    </g>
   </g>
   <g id="legend_1">
    <g id="line2d_34">
     <path d="M 507.603125 277.621875 
L 517.603125 277.621875 
L 527.603125 277.621875 
" style="fill: none; stroke-dasharray: 5.55,2.4; stroke-dashoffset: 0; stroke: #cd5c5c; stroke-width: 1.5"/>
    </g>
    <g id="text_25">
     <!-- 6.2x1 + 6.6x2 = 83 -->
     <g style="fill: #262626" transform="translate(535.603125 281.121875) scale(0.1 -0.1)">
      <defs>
       <path id="ArialMT-78" d="M 47 0 
L 1259 1725 
L 138 3319 
L 841 3319 
L 1350 2541 
Q 1494 2319 1581 2169 
Q 1719 2375 1834 2534 
L 2394 3319 
L 3066 3319 
L 1919 1756 
L 3153 0 
L 2463 0 
L 1781 1031 
L 1600 1309 
L 728 0 
L 47 0 
z
" transform="scale(0.015625)"/>
       <path id="ArialMT-2b" d="M 1603 741 
L 1603 1997 
L 356 1997 
L 356 2522 
L 1603 2522 
L 1603 3769 
L 2134 3769 
L 2134 2522 
L 3381 2522 
L 3381 1997 
L 2134 1997 
L 2134 741 
L 1603 741 
z
" transform="scale(0.015625)"/>
       <path id="ArialMT-3d" d="M 3381 2694 
L 356 2694 
L 356 3219 
L 3381 3219 
L 3381 2694 
z
M 3381 1303 
L 356 1303 
L 356 1828 
L 3381 1828 
L 3381 1303 
z
" transform="scale(0.015625)"/>
      </defs>
      <use xlink:href="#ArialMT-36"/>
      <use xlink:href="#ArialMT-2e" x="55.615234"/>
      <use xlink:href="#ArialMT-32" x="83.398438"/>
      <use xlink:href="#ArialMT-78" x="139.013672"/>
      <use xlink:href="#ArialMT-31" x="189.013672"/>
      <use xlink:href="#ArialMT-20" x="244.628906"/>
      <use xlink:href="#ArialMT-2b" x="272.412109"/>
      <use xlink:href="#ArialMT-20" x="330.810547"/>
      <use xlink:href="#ArialMT-36" x="358.59375"/>
      <use xlink:href="#ArialMT-2e" x="414.208984"/>
      <use xlink:href="#ArialMT-36" x="441.992188"/>
      <use xlink:href="#ArialMT-78" x="497.607422"/>
      <use xlink:href="#ArialMT-32" x="547.607422"/>
      <use xlink:href="#ArialMT-20" x="603.222656"/>
      <use xlink:href="#ArialMT-3d" x="631.005859"/>
      <use xlink:href="#ArialMT-20" x="689.404297"/>
      <use xlink:href="#ArialMT-38" x="717.1875"/>
      <use xlink:href="#ArialMT-33" x="772.802734"/>
     </g>
    </g>
    <g id="line2d_35">
     <path d="M 507.603125 291.767187 
L 517.603125 291.767187 
L 527.603125 291.767187 
" style="fill: none; stroke-dasharray: 1.5,2.475; stroke-dashoffset: 0; stroke: #008080; stroke-width: 1.5"/>
    </g>
    <g id="text_26">
     <!-- -9.6.2x1 + 13.8x2 = -72 -->
     <g style="fill: #262626" transform="translate(535.603125 295.267187) scale(0.1 -0.1)">
      <use xlink:href="#ArialMT-2d"/>
      <use xlink:href="#ArialMT-39" x="33.300781"/>
      <use xlink:href="#ArialMT-2e" x="88.916016"/>
      <use xlink:href="#ArialMT-36" x="116.699219"/>
      <use xlink:href="#ArialMT-2e" x="172.314453"/>
      <use xlink:href="#ArialMT-32" x="200.097656"/>
      <use xlink:href="#ArialMT-78" x="255.712891"/>
      <use xlink:href="#ArialMT-31" x="305.712891"/>
      <use xlink:href="#ArialMT-20" x="361.328125"/>
      <use xlink:href="#ArialMT-2b" x="389.111328"/>
      <use xlink:href="#ArialMT-20" x="447.509766"/>
      <use xlink:href="#ArialMT-31" x="475.292969"/>
      <use xlink:href="#ArialMT-33" x="530.908203"/>
      <use xlink:href="#ArialMT-2e" x="586.523438"/>
      <use xlink:href="#ArialMT-38" x="614.306641"/>
      <use xlink:href="#ArialMT-78" x="669.921875"/>
      <use xlink:href="#ArialMT-32" x="719.921875"/>
      <use xlink:href="#ArialMT-20" x="775.537109"/>
      <use xlink:href="#ArialMT-3d" x="803.320312"/>
      <use xlink:href="#ArialMT-20" x="861.71875"/>
      <use xlink:href="#ArialMT-2d" x="889.501953"/>
      <use xlink:href="#ArialMT-37" x="922.802734"/>
      <use xlink:href="#ArialMT-32" x="978.417969"/>
     </g>
    </g>
    <g id="line2d_36">
     <path d="M 507.603125 305.9125 
L 517.603125 305.9125 
L 527.603125 305.9125 
" style="fill: none; stroke-dasharray: 9.6,2.4,1.5,2.4; stroke-dashoffset: 0; stroke: #ff00ff; stroke-width: 1.5"/>
    </g>
    <g id="text_27">
     <!-- -13.2x1 + 5.7x2 = 305 -->
     <g style="fill: #262626" transform="translate(535.603125 309.4125) scale(0.1 -0.1)">
      <use xlink:href="#ArialMT-2d"/>
      <use xlink:href="#ArialMT-31" x="33.300781"/>
      <use xlink:href="#ArialMT-33" x="88.916016"/>
      <use xlink:href="#ArialMT-2e" x="144.53125"/>
      <use xlink:href="#ArialMT-32" x="172.314453"/>
      <use xlink:href="#ArialMT-78" x="227.929688"/>
      <use xlink:href="#ArialMT-31" x="277.929688"/>
      <use xlink:href="#ArialMT-20" x="333.544922"/>
      <use xlink:href="#ArialMT-2b" x="361.328125"/>
      <use xlink:href="#ArialMT-20" x="419.726562"/>
      <use xlink:href="#ArialMT-35" x="447.509766"/>
      <use xlink:href="#ArialMT-2e" x="503.125"/>
      <use xlink:href="#ArialMT-37" x="530.908203"/>
      <use xlink:href="#ArialMT-78" x="586.523438"/>
      <use xlink:href="#ArialMT-32" x="636.523438"/>
      <use xlink:href="#ArialMT-20" x="692.138672"/>
      <use xlink:href="#ArialMT-3d" x="719.921875"/>
      <use xlink:href="#ArialMT-20" x="778.320312"/>
      <use xlink:href="#ArialMT-33" x="806.103516"/>
      <use xlink:href="#ArialMT-30" x="861.71875"/>
      <use xlink:href="#ArialMT-35" x="917.333984"/>
     </g>
    </g>
   </g>
  </g>
 </g>
 <defs>
  <clipPath id="p73224241aa">
   <rect x="90" y="43.2" width="558" height="277.2"/>
  </clipPath>
 </defs>
</svg>
